<svg width="334" height="280" viewBox="0 0 334 280" fill="none" xmlns="http://www.w3.org/2000/svg">
<path d="M78 187.317L271.636 187.317V33L78 33L78 187.317Z" fill="#D8DBE2"/>
<path d="M206.821 130.48H142.526V147.812H206.821V130.48Z" fill="#F7F7F7"/>
<path d="M154.108 141.465C155.173 141.465 156.036 140.5 156.036 139.309C156.036 138.119 155.173 137.153 154.108 137.153C153.042 137.153 152.179 138.119 152.179 139.309C152.179 140.5 153.042 141.465 154.108 141.465Z" fill="#1A2E46"/>
<path d="M164.219 141.465C165.285 141.465 166.148 140.5 166.148 139.309C166.148 138.119 165.285 137.153 164.219 137.153C163.154 137.153 162.291 138.119 162.291 139.309C162.291 140.5 163.154 141.465 164.219 141.465Z" fill="#1A2E46"/>
<path d="M174.999 141.465C176.065 141.465 176.928 140.5 176.928 139.309C176.928 138.119 176.065 137.153 174.999 137.153C173.934 137.153 173.07 138.119 173.07 139.309C173.07 140.5 173.934 141.465 174.999 141.465Z" fill="#1A2E46"/>
<path d="M185.111 141.465C186.176 141.465 187.04 140.5 187.04 139.309C187.04 138.119 186.176 137.153 185.111 137.153C184.046 137.153 183.182 138.119 183.182 139.309C183.182 140.5 184.046 141.465 185.111 141.465Z" fill="#1A2E46"/>
<path d="M195.231 141.465C196.297 141.465 197.16 140.5 197.16 139.309C197.16 138.119 196.297 137.153 195.231 137.153C194.166 137.153 193.302 138.119 193.302 139.309C193.302 140.5 194.166 141.465 195.231 141.465Z" fill="#1A2E46"/>
<rect x="150" y="75" width="49.14" height="38.16" fill="#00428A"/>
<path d="M106.88 166.861C106.88 166.861 110.445 185.313 119.856 184.361C129.266 183.409 132.381 153.337 132.381 153.337L128.924 149.707L106.88 166.861Z" fill="#F4A28C"/>
<path d="M97.6949 125.151C97.6949 125.151 117.969 128.52 119.889 153.337L106.588 159.693L97.6949 125.151Z" fill="#5ED8EA"/>
<path d="M78.3648 236.908C78.3648 236.908 76.6947 239.213 77.6717 241.5C78.6486 243.787 77.0705 245.635 75.5257 244.001C73.981 242.368 73.5385 235.816 73.5385 235.816L76.4276 234.089L78.3648 236.908Z" fill="#5ED8EA"/>
<path d="M127.813 220.043C127.813 220.043 128.849 222.843 131.153 222.843C133.458 222.843 134.143 225.363 132.13 226.128C130.118 226.893 124.732 224.261 124.732 224.261V220.593L127.813 220.043Z" fill="#5ED8EA"/>
<path d="M79.3834 103.6C79.3834 103.6 82.1723 108.173 83.0574 111.823C83.2236 112.535 83.1319 113.293 82.8021 113.93C82.4724 114.568 81.9311 115.035 81.2956 115.229C80.2918 115.599 79.2142 115.637 78.1912 115.341C77.1682 115.045 76.2429 114.426 75.5257 113.559L72.1189 110.133C71.4997 109.372 71.107 108.415 70.9948 107.393C70.8827 106.372 71.0566 105.337 71.4927 104.431C72.9372 100.959 77.8053 100.707 79.3834 103.6Z" fill="#F4A28C"/>
<path d="M73.6554 110.012L75.9182 125.067L85.0448 125.533L79.7342 113.773L73.6554 110.012Z" fill="#F4A28C"/>
<path d="M78.4065 104.459C77.0966 105.361 75.695 106.084 74.2315 106.615C74.9585 107.025 75.5606 107.667 75.9618 108.459C76.363 109.251 76.5454 110.159 76.486 111.067C76.4615 111.962 76.1436 112.815 75.5926 113.465C75.3939 113.676 75.154 113.832 74.892 113.921C74.63 114.01 74.353 114.029 74.0832 113.977C73.8133 113.926 73.5579 113.804 73.3372 113.623C73.1166 113.442 72.9367 113.206 72.812 112.933L70.5575 108.323C70.0921 107.449 69.8464 106.451 69.8464 105.434C69.8464 104.417 70.0921 103.419 70.5575 102.545C70.9605 101.789 71.4068 101.063 71.8935 100.371C73.1293 98.6534 76.0685 98.3734 76.9035 96.264C76.9894 96.0548 77.122 95.8738 77.2885 95.7383C77.455 95.6028 77.6498 95.5174 77.8543 95.4902C78.0588 95.4631 78.2661 95.4951 78.4564 95.5832C78.6467 95.6713 78.8135 95.8125 78.9409 95.9934C80.135 97.72 81.329 100.875 79.5672 103.339C79.2365 103.779 78.8446 104.157 78.4065 104.459Z" fill="#24285B"/>
<path d="M76.8784 110.591C76.8784 110.591 75.9098 108.724 74.7324 109.657C73.5551 110.591 74.9412 113.251 76.7615 112.457L76.8784 110.591Z" fill="#F4A28C"/>
<path d="M80.995 106.559L83.1326 107.66C83.2468 107.73 83.3447 107.829 83.4186 107.949C83.4925 108.069 83.5403 108.206 83.5581 108.35C83.576 108.495 83.5634 108.642 83.5214 108.779C83.4794 108.917 83.4092 109.042 83.3163 109.144L81.83 110.535L80.995 106.559Z" fill="#F4A28C"/>
<path opacity="0.31" d="M80.5274 115.547C79.4315 115.623 78.3377 115.365 77.3628 114.8C77.3628 114.8 77.6216 118.757 82.0471 118.916L80.5274 115.547Z" fill="#CE8172"/>
<path d="M60.4373 130.573C72.4279 121.735 92.6265 119.877 104.066 128.707C115.347 137.368 109.911 188.608 109.911 188.608L86.4893 196.495C86.4893 196.495 41.2156 158.76 60.4373 130.573Z" fill="#5ED8EA"/>
<path d="M82.7402 196.933L86.147 206.117C86.5923 208.799 86.525 211.557 85.9493 214.207C85.3737 216.858 84.3028 219.343 82.807 221.499L74.3151 233.735L78.9994 237.468L91.3073 226.511C93.8211 224.274 95.8549 221.436 97.2594 218.206C98.6638 214.976 99.4033 211.435 99.4235 207.844V203.177L97.8955 197.185L82.7402 196.933Z" fill="#1A2E46"/>
<path opacity="0.08" d="M112.508 180.46L114.746 182.765L128.014 152.031L111.23 164.509L112.508 180.46Z" fill="black"/>
<path d="M90.8813 203.905L95.4405 207.247L112.224 201.441C113.042 201.158 113.904 201.065 114.756 201.168C115.608 201.271 116.432 201.567 117.177 202.039C117.922 202.511 118.574 203.149 119.09 203.913C119.607 204.677 119.978 205.551 120.181 206.481L123.288 220.78L128.982 220.248L127.137 200.928C126.805 197.455 125.348 194.238 123.041 191.883C120.734 189.527 117.736 188.197 114.612 188.141L101.661 187.945L90.8813 203.905Z" fill="#1A2E46"/>
<path d="M173.772 135.175L182.03 129.64L170.023 107.24L106.045 155.419C101.9 150.803 96.3715 148.07 90.5281 147.747C84.6847 147.425 78.9419 149.535 74.4103 153.672C69.8786 157.808 66.8802 163.675 65.9949 170.139C65.1096 176.604 66.4004 183.205 69.6175 188.667C72.8346 194.129 77.7495 198.064 83.4117 199.71C89.0739 201.356 95.0809 200.596 100.271 197.578C105.461 194.56 109.466 189.498 111.51 183.371C113.555 177.243 113.494 170.487 111.339 164.407L151.135 134.4L158.967 147.961L167.05 142.128L159.118 128.389L166.975 122.481L173.772 135.175ZM89.345 189.812C86.5705 189.812 83.8584 188.892 81.5515 187.169C79.2446 185.446 77.4466 182.998 76.3848 180.132C75.3231 177.267 75.0453 174.115 75.5866 171.073C76.1278 168.031 77.4639 165.237 79.4257 163.045C81.3876 160.852 83.8871 159.358 86.6083 158.753C89.3295 158.148 92.15 158.459 94.7133 159.646C97.2766 160.832 99.4675 162.842 101.009 165.421C102.55 167.999 103.373 171.031 103.373 174.132C103.369 178.289 101.889 182.274 99.2594 185.214C96.6296 188.153 93.0641 189.807 89.345 189.812Z" fill="#FFB900"/>
<path d="M74.5238 140.56C75.3588 130.657 64.5038 125.113 58.4417 132.431C53.5987 138.301 49.0145 148.204 49.4654 164.491C50.3923 198.091 59.3268 205.987 82.0304 204.363C84.7258 204.949 87.5175 204.587 90.0214 203.327C90.3886 203.114 90.688 202.78 90.8786 202.37C91.0691 201.959 91.1414 201.493 91.0856 201.035C91.0299 200.577 90.8487 200.15 90.5669 199.811C90.2852 199.473 89.9167 199.24 89.512 199.145C86.9569 198.585 83.7589 198.212 81.997 199.304C81.997 199.304 61.2473 191.968 67.3428 164.556C67.3929 164.556 73.5468 152.031 74.5238 140.56Z" fill="#F4A28C"/>
<path d="M58.2579 132.113C53.9493 136.099 48.6972 143.948 48.789 158.489L70.2819 161.177C70.2819 161.177 82.8069 137.9 71.334 130.583C69.2719 129.329 66.9179 128.804 64.5832 129.077C62.2484 129.35 60.0428 130.409 58.2579 132.113Z" fill="#5ED8EA"/>
<path d="M128.014 152.031C128.014 152.031 133.124 145.012 136.038 147.877C138.952 150.743 133.6 159.385 128.014 152.031Z" fill="#F4A28C"/>
<path opacity="0.08" d="M49.5238 158.583V165.657L67.3928 164.556L68.9042 161.177L49.5238 158.583Z" fill="black"/>
<path d="M92.4929 48.7107C94.7249 48.7107 96.5343 46.6882 96.5343 44.1934C96.5343 41.6985 94.7249 39.676 92.4929 39.676C90.2609 39.676 88.4515 41.6985 88.4515 44.1934C88.4515 46.6882 90.2609 48.7107 92.4929 48.7107Z" fill="#1A2E46"/>
<path d="M104.517 48.7107C106.749 48.7107 108.558 46.6882 108.558 44.1934C108.558 41.6985 106.749 39.676 104.517 39.676C102.285 39.676 100.476 41.6985 100.476 44.1934C100.476 46.6882 102.285 48.7107 104.517 48.7107Z" fill="#5ED8EA"/>
<path d="M115.848 48.7107C118.08 48.7107 119.889 46.6882 119.889 44.1934C119.889 41.6985 118.08 39.676 115.848 39.676C113.616 39.676 111.807 41.6985 111.807 44.1934C111.807 46.6882 113.616 48.7107 115.848 48.7107Z" fill="#FFB900"/>
<path d="M193 75H187.282V71.6829C187.282 67.8929 185.935 64.2581 183.538 61.5781C181.141 58.8982 177.89 57.3926 174.5 57.3926C171.11 57.3926 167.859 58.8982 165.462 61.5781C163.065 64.2581 161.718 67.8929 161.718 71.6829V75H156V71.6829C156 66.1975 157.949 60.9367 161.419 57.0579C164.888 53.1791 169.593 51 174.5 51C179.406 51 184.112 53.1791 187.581 57.0579C191.051 60.9367 193 66.1975 193 71.6829V75Z" fill="#F7F7F7"/>
<path d="M174.974 93.4546C177.631 93.4546 179.784 91.0477 179.784 88.0786C179.784 85.1096 177.631 82.7026 174.974 82.7026C172.318 82.7026 170.165 85.1096 170.165 88.0786C170.165 91.0477 172.318 93.4546 174.974 93.4546Z" fill="#D8DBE2"/>
<path d="M177.872 90.8413H172.603V105.168H177.872V90.8413Z" fill="#D8DBE2"/>
<path d="M187.516 157.229H161.163V171.873H187.516V157.229Z" fill="#1A2E46"/>
</svg>
