<svg width="243" height="228" viewBox="0 0 243 228" fill="none" xmlns="http://www.w3.org/2000/svg">
<g clip-path="url(#clip0_644_216)">
<path d="M186.388 218.239L188.12 222.489L181.122 225.796L174.659 226.266C174.659 226.266 173.553 222.016 176.571 221.637C178.334 221.435 180.017 220.786 181.458 219.751L186.388 218.239Z" fill="#68E1FD"/>
<path d="M191.945 220.16C191.068 220.521 190.305 221.113 189.738 221.873C189.171 222.633 188.821 223.532 188.725 224.475L188.537 226.266H196.484V220.156L191.945 220.16Z" fill="#68E1FD"/>
<path opacity="0.22" d="M242.426 25.3812V131.504C242.427 133.048 242.123 134.577 241.532 136.003C240.941 137.43 240.074 138.726 238.981 139.818C237.889 140.91 236.591 141.776 235.163 142.367C233.735 142.958 232.205 143.263 230.659 143.263H11.7752C8.65285 143.261 5.65896 142.022 3.45112 139.817C1.24328 137.612 0.00202619 134.622 0 131.504L0 25.3812C0.00303751 22.2635 1.24461 19.2744 3.45223 17.0699C5.65986 14.8653 8.65316 13.6255 11.7752 13.6224H230.659C233.779 13.6275 236.771 14.8682 238.977 17.0726C241.183 19.2769 242.423 22.2649 242.426 25.3812Z" fill="url(#paint0_linear_644_216)"/>
<path d="M243 24.988V131.107C243.004 132.648 242.704 134.173 242.118 135.598C241.531 137.022 240.669 138.318 239.582 139.409C238.494 140.501 237.201 141.369 235.778 141.962C234.355 142.555 232.828 142.862 231.286 142.866H12.345C10.7992 142.867 9.26827 142.564 7.83972 141.974C6.41116 141.384 5.11293 140.519 4.01915 139.429C2.92536 138.338 2.05744 137.042 1.46495 135.617C0.872453 134.191 0.566983 132.663 0.565979 131.119V24.988C0.570027 21.8696 1.81233 18.88 4.02045 16.675C6.22857 14.47 9.22226 13.2294 12.345 13.2253H231.229C234.089 13.2259 236.85 14.2661 238.998 16.1517C241.146 18.0374 242.534 20.6394 242.901 23.4718C242.968 23.9744 243.001 24.4809 243 24.988Z" fill="#68E1FD"/>
<path d="M243 24.988V131.107C243.004 132.648 242.704 134.173 242.118 135.598C241.531 137.022 240.669 138.318 239.582 139.409C238.494 140.501 237.201 141.369 235.778 141.962C234.355 142.555 232.828 142.862 231.286 142.866H12.345C10.7992 142.867 9.26827 142.564 7.83972 141.974C6.41116 141.384 5.11293 140.519 4.01915 139.429C2.92536 138.338 2.05744 137.042 1.46495 135.617C0.872453 134.191 0.566983 132.663 0.565979 131.119V24.988C0.570027 21.8696 1.81233 18.88 4.02045 16.675C6.22857 14.47 9.22226 13.2294 12.345 13.2253H231.229C234.089 13.2259 236.85 14.2661 238.998 16.1517C241.146 18.0374 242.534 20.6394 242.901 23.4718C242.968 23.9744 243.001 24.4809 243 24.988Z" fill="url(#paint1_linear_644_216)"/>
<path d="M243 23H0C0.369046 20.2355 1.76127 17.6959 3.91666 15.8557C6.07205 14.0155 8.84322 13.0004 11.7126 13H231.287C234.157 12.9996 236.929 14.0144 239.084 15.8548C241.24 17.6952 242.632 20.2351 243 23Z" fill="url(#paint2_linear_644_216)"/>
<path d="M158.214 106.555H76.2731C74.6003 106.555 73.2442 107.909 73.2442 109.579V114.556C73.2442 116.226 74.6003 117.58 76.2731 117.58H158.214C159.887 117.58 161.243 116.226 161.243 114.556V109.579C161.243 107.909 159.887 106.555 158.214 106.555Z" fill="white" stroke="#C0C0C0" stroke-width="0.88" stroke-miterlimit="10"/>
<path d="M80.4187 114.617C81.7472 114.617 82.8242 113.541 82.8242 112.215C82.8242 110.888 81.7472 109.812 80.4187 109.812C79.0902 109.812 78.0132 110.888 78.0132 112.215C78.0132 113.541 79.0902 114.617 80.4187 114.617Z" fill="#5ED8EA"/>
<path d="M87.903 114.617C89.2315 114.617 90.3085 113.541 90.3085 112.215C90.3085 110.888 89.2315 109.812 87.903 109.812C86.5744 109.812 85.4974 110.888 85.4974 112.215C85.4974 113.541 86.5744 114.617 87.903 114.617Z" fill="#5ED8EA"/>
<path d="M95.3911 114.617C96.7196 114.617 97.7966 113.541 97.7966 112.215C97.7966 110.888 96.7196 109.812 95.3911 109.812C94.0625 109.812 92.9855 110.888 92.9855 112.215C92.9855 113.541 94.0625 114.617 95.3911 114.617Z" fill="#5ED8EA"/>
<path d="M102.875 114.617C104.204 114.617 105.281 113.541 105.281 112.215C105.281 110.888 104.204 109.812 102.875 109.812C101.547 109.812 100.47 110.888 100.47 112.215C100.47 113.541 101.547 114.617 102.875 114.617Z" fill="#5ED8EA"/>
<path d="M167.182 111.558V110.29H168.184V109.473H167.182V108.861H168.184V108.044H166.176V111.558C165.566 111.682 165.024 112.028 164.655 112.529C164.286 113.03 164.117 113.65 164.179 114.268C164.242 114.887 164.532 115.46 164.994 115.877C165.456 116.294 166.056 116.525 166.679 116.525C167.302 116.525 167.902 116.294 168.364 115.877C168.826 115.46 169.116 114.887 169.179 114.268C169.242 113.65 169.072 113.03 168.703 112.529C168.334 112.028 167.792 111.682 167.182 111.558ZM166.681 115.759C166.335 115.759 165.997 115.658 165.709 115.467C165.422 115.275 165.197 115.003 165.064 114.685C164.931 114.366 164.896 114.015 164.962 113.677C165.029 113.338 165.195 113.027 165.439 112.782C165.683 112.537 165.994 112.37 166.332 112.302C166.671 112.234 167.023 112.268 167.343 112.399C167.662 112.531 167.936 112.754 168.128 113.041C168.321 113.327 168.424 113.664 168.425 114.01C168.425 114.472 168.241 114.916 167.915 115.244C167.588 115.571 167.144 115.757 166.681 115.759Z" fill="#5ED8EA"/>
<path d="M132.185 48.0549H107.09C104.606 48.0549 102.592 50.0657 102.592 52.5461V77.6066C102.592 80.087 104.606 82.0978 107.09 82.0978H132.185C134.669 82.0978 136.683 80.087 136.683 77.6066V52.5461C136.683 50.0657 134.669 48.0549 132.185 48.0549Z" fill="url(#paint3_linear_644_216)"/>
<path d="M132.323 48.0549H109.036C106.631 48.0549 104.68 50.0024 104.68 52.4048V77.7479C104.68 80.1503 106.631 82.0978 109.036 82.0978H132.323C134.729 82.0978 136.679 80.1503 136.679 77.7479V52.4048C136.679 50.0024 134.729 48.0549 132.323 48.0549Z" fill="#5ED8EA"/>
<path d="M137.998 65.187L136.239 66.856L135.474 67.5739C134.872 66.8549 134.107 66.2891 133.242 65.9232C132.378 65.5574 131.439 65.4019 130.503 65.4697C130.093 65.5189 129.678 65.4514 129.306 65.2749C128.04 64.5569 130.024 62.1089 130.024 62.1089C130.461 62.1013 130.898 62.1205 131.332 62.1662H131.447L131.795 62.2082C133.47 62.445 136.147 63.2355 137.998 65.187Z" fill="white"/>
<path opacity="0.26" d="M136.17 66.6994L136.239 66.8559L135.474 67.5739C134.872 66.8549 134.107 66.2891 133.242 65.9232C132.378 65.5573 131.439 65.4019 130.503 65.4696C130.093 65.5189 129.678 65.4514 129.306 65.2749L130.024 62.1089C130.024 62.1089 130.732 62.1089 131.332 62.1662H131.447C131.564 62.1724 131.68 62.1864 131.795 62.2082C131.795 62.2082 132.212 63.9878 131.902 64.7364C131.902 64.7478 134.836 65.2367 136.17 66.6994Z" fill="url(#paint4_linear_644_216)"/>
<path d="M120.23 55.2308H119.045C118.092 55.2308 117.32 56.002 117.32 56.9532V73.1994C117.32 74.1506 118.092 74.9218 119.045 74.9218H120.23C121.183 74.9218 121.955 74.1506 121.955 73.1994V56.9532C121.955 56.002 121.183 55.2308 120.23 55.2308Z" fill="url(#paint5_linear_644_216)"/>
<path d="M130.495 64.8089C130.476 66.8704 129.643 68.841 128.177 70.2926C126.711 71.7443 124.731 72.5596 122.666 72.5616H120.98C120.673 72.5605 120.375 72.4561 120.135 72.2654C119.895 72.0747 119.726 71.8087 119.656 71.5103C119.585 71.212 119.618 70.8987 119.748 70.621C119.878 70.3434 120.098 70.1175 120.372 69.9799C120.561 69.8878 120.769 69.8395 120.98 69.8386H121.615C122.285 69.8386 122.949 69.7067 123.569 69.4505C124.188 69.1943 124.751 68.8187 125.225 68.3453C125.699 67.8719 126.075 67.3098 126.332 66.6913C126.588 66.0727 126.72 65.4097 126.72 64.7402V64.6294C126.674 63.2837 126.104 62.009 125.132 61.0767C124.159 60.1445 122.86 59.6282 121.511 59.638H120.747C120.45 59.638 120.166 59.5205 119.957 59.3113C119.748 59.1022 119.63 58.8186 119.63 58.5228V58.0492C119.63 57.7535 119.748 57.4698 119.957 57.2607C120.166 57.0516 120.45 56.9341 120.747 56.9341H122.54C126.866 56.9303 130.525 60.4743 130.495 64.8089Z" fill="white"/>
<path opacity="0.26" d="M128.407 65.1221C128.392 66.9128 127.67 68.6253 126.398 69.8879C125.127 71.1506 123.408 71.8615 121.615 71.8665H120.146C120.016 71.8673 119.887 71.8467 119.764 71.8054C119.684 71.6459 119.637 71.4724 119.625 71.2947C119.613 71.117 119.636 70.9387 119.693 70.7699C119.749 70.6011 119.839 70.4451 119.956 70.3108C120.073 70.1766 120.216 70.0667 120.376 69.9875C120.565 69.8954 120.773 69.8472 120.984 69.8462H121.615C122.285 69.8462 122.949 69.7144 123.569 69.4581C124.188 69.2019 124.751 68.8264 125.225 68.3529C125.699 67.8795 126.075 67.3175 126.332 66.6989C126.588 66.0803 126.72 65.4174 126.72 64.7478V64.6371C126.674 63.2914 126.104 62.0167 125.132 61.0844C124.159 60.1521 122.86 59.6359 121.511 59.6456H120.747C120.45 59.6456 120.166 59.5281 119.957 59.319C119.748 59.1098 119.63 58.8262 119.63 58.5304V58.3204C119.729 58.2887 119.832 58.272 119.936 58.2708H121.492C123.317 58.2707 125.068 58.9908 126.363 60.2742C127.658 61.5575 128.393 63.3001 128.407 65.1221Z" fill="url(#paint6_linear_644_216)"/>
<path d="M126.468 63.1935C126.468 63.1935 126.98 64.5645 126.342 66.6573C126.342 66.6573 123.921 69.1435 125.986 73.0962L127.692 74.9179L125.707 76.8694C124.471 75.9165 123.511 74.6523 122.927 73.2066C122.342 71.761 122.153 70.1859 122.38 68.6432C122.831 65.2749 126.468 63.1935 126.468 63.1935Z" fill="white"/>
<path d="M124.013 78.4429L139.731 63.5487L152.917 74.918L136.679 90.4729L124.013 78.4429Z" fill="#5ED8EA"/>
<path d="M124.013 78.4429L125.057 84.3471L136.679 95.4834V90.4728L124.013 78.4429Z" fill="#68E1FD"/>
<path d="M152.917 74.918V80.3372L136.679 95.4835V90.4729L152.917 74.918Z" fill="#68E1FD"/>
<path d="M124.013 78.4429L125.057 84.3471L136.679 95.4834V90.4728L124.013 78.4429Z" fill="url(#paint7_linear_644_216)"/>
<path d="M152.917 74.918V80.3372L136.679 95.4835V90.4729L152.917 74.918Z" fill="url(#paint8_linear_644_216)"/>
<path d="M126.911 81.1964L142.779 66.1761L144.244 67.4402L128.407 82.6171L126.911 81.1964Z" fill="url(#paint9_linear_644_216)"/>
<path d="M131.596 85.5463L147.842 70.526L149.307 71.7863L133.092 86.9631L131.596 85.5463Z" fill="url(#paint10_linear_644_216)"/>
<path d="M177.332 156.897L172.624 191.139C172.426 192.58 172.577 194.048 173.064 195.42L181.477 220.159L186.396 218.632L182.686 194.007C182.606 193.496 182.64 192.975 182.785 192.479L189.168 170.466L191.945 220.114H196.484L200.397 171.131C201.72 162.943 199.295 156.897 199.295 156.897H177.332Z" fill="#1A2E46"/>
<path d="M201.46 147.831L196.802 117.867L196.152 114.216C196.152 114.216 204.848 119.181 207.342 127.865C210.604 139.265 201.46 147.831 201.46 147.831Z" fill="#5ED8EA"/>
<path d="M206.24 140.857C209.77 133.888 202.798 121.762 202.798 121.762L196.794 117.871L197.471 113.544C197.471 113.544 207.154 114.533 208.099 128.186C208.428 132.581 208.084 138.012 206.24 140.857Z" fill="#5ED8EA"/>
<path d="M156.351 117.462C156.026 116.362 155.46 115.052 154.313 114.953C154.621 115.956 154.575 117.035 154.183 118.008C151.682 117.084 151.101 113.425 148.603 112.478C148.221 112.883 148.435 113.544 148.672 114.048C149.108 114.987 149.547 115.927 149.988 116.866C149.403 115.946 148.779 115.052 148.118 114.193C147.923 113.929 147.586 113.643 147.311 113.811C147.035 113.979 147.135 114.334 147.234 114.609C147.67 115.831 148.167 117.034 148.714 118.211C148.1 117.181 147.398 116.208 146.615 115.3C146.102 115.426 146.209 116.183 146.431 116.66L148.072 120.151L146.756 118.241C146.332 118.283 146.397 118.932 146.603 119.307C148.366 122.453 151.123 124.928 154.443 126.345C155.116 126.631 155.896 126.868 156.558 126.559C159.403 125.264 156.902 119.349 156.351 117.462Z" fill="url(#paint11_linear_644_216)"/>
<path d="M201.46 126.731V150.225C201.46 153.105 200.989 155.446 198.102 155.446H177.94C175.064 155.446 174.953 153.128 174.934 150.26L174.773 134.292C174.773 134.292 170.421 142.034 166.949 141.281C163.476 140.529 153.181 126.357 153.181 126.357L158.329 122.056L166.964 130.703C166.964 130.703 168.352 127.552 170.372 120.498C172.391 113.444 178.942 113.425 178.942 113.425H196.473C202.802 113.425 201.46 126.731 201.46 126.731Z" fill="#5ED8EA"/>
<path d="M199.288 155.297H177.332V156.897H199.288V155.297Z" fill="#68E1FD"/>
<path d="M191.145 97.4464H184.808V113.536H191.145V97.4464Z" fill="url(#paint12_linear_644_216)"/>
<path d="M191.149 95.682V113.54H187.807V112.451C187.805 111.813 187.55 111.201 187.098 110.75C186.646 110.298 186.033 110.044 185.394 110.042H185.199C183.606 110.042 182.079 109.41 180.953 108.285C179.827 107.161 179.194 105.636 179.194 104.046V95.682H191.149Z" fill="url(#paint13_linear_644_216)"/>
<path d="M179.194 97.4464C179.194 97.4464 173.649 94.4255 175.634 91.1182C177.619 87.8109 180.854 89.8923 180.854 89.8923H191.562C191.562 89.8923 192.79 89.7014 193.264 91.7789C193.738 93.8565 191.184 106.753 191.184 106.753H185.864L185.183 103.4C185.183 103.4 186.243 102.255 186.147 101.036C186.156 100.808 186.086 100.584 185.949 100.402C185.811 100.219 185.615 100.089 185.394 100.034C185.172 99.9791 184.938 100.002 184.731 100.099C184.524 100.196 184.357 100.361 184.258 100.567C183.78 101.414 183.971 97.8244 182.269 97.4464C181.257 97.2134 180.206 97.2134 179.194 97.4464Z" fill="#3F3D56"/>
<path d="M186.388 218.239L188.12 222.489L181.122 225.796L174.659 226.266C174.659 226.266 173.553 222.016 176.571 221.637C178.334 221.435 180.017 220.786 181.458 219.751L186.388 218.239Z" fill="url(#paint14_linear_644_216)"/>
<path d="M191.945 220.16C191.068 220.521 190.305 221.113 189.738 221.873C189.171 222.633 188.821 223.532 188.725 224.475L188.537 226.266H196.484V220.156L191.945 220.16Z" fill="url(#paint15_linear_644_216)"/>
</g>
<defs>
<linearGradient id="paint0_linear_644_216" x1="0" y1="78.4429" x2="242.426" y2="78.4429" gradientUnits="userSpaceOnUse">
<stop stop-color="#68E1FD"/>
<stop offset="1" stop-color="#69B9EB"/>
</linearGradient>
<linearGradient id="paint1_linear_644_216" x1="-34.5684" y1="46.1798" x2="334.288" y2="121.57" gradientUnits="userSpaceOnUse">
<stop stop-color="#5ED8EA"/>
<stop offset="1" stop-color="white"/>
</linearGradient>
<linearGradient id="paint2_linear_644_216" x1="-20.8702" y1="20.9128" x2="413.726" y2="11.8661" gradientUnits="userSpaceOnUse">
<stop stop-color="#5ED8EA"/>
<stop offset="0.91" stop-opacity="0.8"/>
<stop offset="1"/>
</linearGradient>
<linearGradient id="paint3_linear_644_216" x1="120.047" y1="64.9236" x2="44.8707" y2="93.3301" gradientUnits="userSpaceOnUse">
<stop stop-opacity="0"/>
<stop offset="0.91" stop-opacity="0.8"/>
<stop offset="1"/>
</linearGradient>
<linearGradient id="paint4_linear_644_216" x1="135.126" y1="45.9811" x2="123.528" y2="145.234" gradientUnits="userSpaceOnUse">
<stop stop-opacity="0"/>
<stop offset="0.91" stop-opacity="0.8"/>
<stop offset="1"/>
</linearGradient>
<linearGradient id="paint5_linear_644_216" x1="114.708" y1="65.061" x2="153.934" y2="65.1874" gradientUnits="userSpaceOnUse">
<stop stop-opacity="0"/>
<stop offset="0.91" stop-opacity="0.8"/>
<stop offset="1"/>
</linearGradient>
<linearGradient id="paint6_linear_644_216" x1="126.009" y1="44.9156" x2="114.411" y2="144.168" gradientUnits="userSpaceOnUse">
<stop stop-opacity="0"/>
<stop offset="0.91" stop-opacity="0.8"/>
<stop offset="1"/>
</linearGradient>
<linearGradient id="paint7_linear_644_216" x1="127.344" y1="94.9831" x2="140.135" y2="60.7147" gradientUnits="userSpaceOnUse">
<stop stop-opacity="0"/>
<stop offset="0.91" stop-opacity="0.8"/>
<stop offset="1"/>
</linearGradient>
<linearGradient id="paint8_linear_644_216" x1="146.71" y1="91.8516" x2="136.998" y2="57.9428" gradientUnits="userSpaceOnUse">
<stop stop-opacity="0"/>
<stop offset="0.91" stop-opacity="0.8"/>
<stop offset="1"/>
</linearGradient>
<linearGradient id="paint9_linear_644_216" x1="142.125" y1="65.0113" x2="93.5927" y2="134.222" gradientUnits="userSpaceOnUse">
<stop stop-opacity="0"/>
<stop offset="0.91" stop-opacity="0.8"/>
<stop offset="1"/>
</linearGradient>
<linearGradient id="paint10_linear_644_216" x1="147.437" y1="68.7349" x2="98.9047" y2="137.95" gradientUnits="userSpaceOnUse">
<stop stop-opacity="0"/>
<stop offset="0.91" stop-opacity="0.8"/>
<stop offset="1"/>
</linearGradient>
<linearGradient id="paint11_linear_644_216" x1="146.247" y1="119.593" x2="157.893" y2="119.593" gradientUnits="userSpaceOnUse">
<stop stop-color="#ECC4D7"/>
<stop offset="0.42" stop-color="#EFD4D1"/>
<stop offset="1" stop-color="#F2EAC9"/>
</linearGradient>
<linearGradient id="paint12_linear_644_216" x1="186.021" y1="105.527" x2="196.427" y2="105.34" gradientUnits="userSpaceOnUse">
<stop stop-color="#F2EAC9"/>
<stop offset="0.42" stop-color="#EFD4D1"/>
<stop offset="1" stop-color="#F2EAC9"/>
</linearGradient>
<linearGradient id="paint13_linear_644_216" x1="186.629" y1="103.843" x2="184.485" y2="104.976" gradientUnits="userSpaceOnUse">
<stop stop-color="#ECC4D7"/>
<stop offset="0.42" stop-color="#EFD4D1"/>
<stop offset="1" stop-color="#F2EAC9"/>
</linearGradient>
<linearGradient id="paint14_linear_644_216" x1="180.032" y1="218.407" x2="181.607" y2="225.362" gradientUnits="userSpaceOnUse">
<stop stop-opacity="0"/>
<stop offset="0.91" stop-opacity="0.8"/>
<stop offset="1"/>
</linearGradient>
<linearGradient id="paint15_linear_644_216" x1="192.017" y1="220.297" x2="193.238" y2="227.535" gradientUnits="userSpaceOnUse">
<stop stop-opacity="0"/>
<stop offset="0.91" stop-opacity="0.8"/>
<stop offset="1"/>
</linearGradient>
<clipPath id="clip0_644_216">
<rect width="243" height="228" fill="white"/>
</clipPath>
</defs>
</svg>
