<svg width="307" height="230" viewBox="0 0 307 230" fill="none" xmlns="http://www.w3.org/2000/svg">
<path d="M120.167 173.474C106.45 166.768 91.878 161.97 76.8575 159.214C84.6015 154.085 85.039 140.952 86.3361 131.759C90.5113 102.258 119.807 83.4133 142.586 67.8883C144.505 66.5385 146.493 65.2897 148.542 64.147C150.96 62.8513 157.691 58.8416 159.456 62.5446C161.152 66.1096 156.946 72.5956 154.851 75.21C156.241 73.1411 157.78 71.1759 159.456 69.3296C159.971 68.6399 160.687 68.1258 161.505 67.8576C163.04 67.505 164.506 68.9616 164.736 70.5103C164.966 72.059 164.322 73.577 163.616 74.9953C161.915 78.3445 159.795 81.4643 157.307 84.2796C158.98 82.386 165.166 75.2943 165.036 82.478C164.928 87.0029 163.039 91.303 159.778 94.4457C161.209 93.1908 162.751 92.0669 164.383 91.0876C164.613 90.9073 164.877 90.7767 165.16 90.7041C165.443 90.6315 165.738 90.6185 166.026 90.666C166.33 90.8139 166.592 91.0376 166.786 91.3154C166.979 91.5933 167.098 91.9161 167.131 92.253C168.159 96.853 165.596 100.15 163.846 104.083C162.48 107.149 161.682 110.032 159.939 112.984C153.646 123.671 146.969 134.174 139.769 144.271C137.912 146.84 120.26 173.52 120.167 173.474Z" fill="white"/>
<path d="M120.144 173.865C120.093 173.863 120.042 173.847 119.999 173.819C106.313 167.127 91.7747 162.339 76.7884 159.589C76.7146 159.575 76.6467 159.539 76.5932 159.486C76.5396 159.433 76.5028 159.366 76.4873 159.292C76.4717 159.219 76.4782 159.142 76.5058 159.073C76.5334 159.003 76.5809 158.942 76.6425 158.899C83.1586 154.583 84.425 144.149 85.4458 135.761C85.6146 134.351 85.7758 132.994 85.96 131.706C89.997 103.17 117.558 84.4406 139.685 69.3833L142.348 67.5739C144.276 66.215 146.274 64.9585 148.335 63.8096L148.872 63.5183C151.174 62.2763 155.388 59.9686 158.013 60.8196C158.399 60.9358 158.756 61.1325 159.06 61.3968C159.365 61.6612 159.609 61.9871 159.778 62.353C160.691 64.2773 160.047 66.8533 158.972 69.2146C159.018 69.1533 159.072 69.0996 159.126 69.0383C159.702 68.2919 160.496 67.7426 161.398 67.4666C161.761 67.3915 162.136 67.3922 162.499 67.4687C162.863 67.5452 163.206 67.6959 163.508 67.9113C163.929 68.2053 164.286 68.5808 164.559 69.0154C164.832 69.45 165.015 69.9348 165.097 70.4413C165.343 72.0819 164.682 73.6689 163.938 75.1486C163.08 76.8343 162.119 78.4653 161.06 80.0323C162.211 79.1736 163.286 78.7136 164.13 79.0356C164.974 79.3576 165.45 80.5076 165.412 82.4703C165.341 85.8248 164.304 89.0878 162.426 91.8696C163.002 91.471 163.577 91.103 164.168 90.7426C164.443 90.5315 164.76 90.3813 165.097 90.302C165.435 90.2226 165.785 90.216 166.125 90.2826C166.5 90.4422 166.825 90.7006 167.064 91.0301C167.303 91.3595 167.448 91.7478 167.484 92.1533C168.328 95.9329 166.878 98.8003 165.343 101.836C164.951 102.603 164.575 103.408 164.176 104.228C163.7 105.294 163.286 106.36 162.887 107.395C162.17 109.386 161.29 111.314 160.254 113.16C153.423 124.767 146.823 135.01 140.069 144.478C139.171 145.743 134.412 152.912 129.807 159.812L123.391 169.433C120.82 173.267 120.413 173.865 120.144 173.865ZM77.8091 159.007C92.4402 161.771 106.636 166.474 120.022 172.991C120.912 171.71 125.079 165.454 129.124 159.39C133.729 152.49 138.488 145.322 139.401 144.057C146.14 134.604 152.725 124.376 159.548 112.8C160.562 110.985 161.425 109.09 162.127 107.134C162.526 106.099 162.948 105.018 163.431 103.937C163.8 103.101 164.199 102.296 164.606 101.514C166.087 98.601 167.476 95.8563 166.693 92.3143C166.578 91.8006 166.333 91.1566 165.849 91.0033C165.613 90.9779 165.374 90.9994 165.146 91.0665C164.918 91.1336 164.706 91.245 164.521 91.3943C162.912 92.363 161.392 93.4713 159.978 94.7063C159.901 94.7675 159.805 94.7973 159.707 94.7895C159.61 94.7818 159.519 94.7371 159.453 94.6647C159.387 94.5922 159.352 94.4974 159.354 94.3997C159.356 94.302 159.395 94.2087 159.463 94.139C161.047 92.6228 162.315 90.8099 163.196 88.8037C164.077 86.7975 164.553 84.6375 164.598 82.4473C164.598 80.9139 164.352 79.9556 163.831 79.741C162.825 79.3576 160.761 80.9216 157.637 84.4253L157.568 84.5096C157.532 84.5455 157.49 84.5741 157.443 84.5935C157.396 84.613 157.346 84.623 157.295 84.623C157.245 84.623 157.194 84.613 157.148 84.5935C157.101 84.5741 157.058 84.5455 157.023 84.5096C156.986 84.4752 156.957 84.4336 156.937 84.3875C156.917 84.3413 156.907 84.2916 156.907 84.2413C156.907 84.191 156.917 84.1412 156.937 84.0951C156.957 84.0489 156.986 84.0074 157.023 83.9729C159.486 81.184 161.583 78.0924 163.263 74.7729C163.953 73.4083 164.56 71.9516 164.345 70.5256C164.278 70.1235 164.131 69.7388 163.914 69.3939C163.697 69.049 163.413 68.7509 163.078 68.517C162.861 68.3561 162.611 68.2435 162.347 68.1866C162.082 68.1298 161.808 68.13 161.543 68.1873C160.806 68.4432 160.162 68.913 159.694 69.5366C158.727 70.6176 157.79 71.737 156.915 72.8946C155.987 74.313 155.212 75.2866 155.119 75.4016C155.056 75.478 154.967 75.5275 154.868 75.5403C154.77 75.5532 154.67 75.5282 154.59 75.4706C154.509 75.4135 154.453 75.3266 154.436 75.2289C154.419 75.1312 154.441 75.0307 154.498 74.9493C155.096 74.0523 155.726 73.1783 156.378 72.3273C158.358 69.2606 160.262 65.1359 159.087 62.6673C158.965 62.3906 158.784 62.1434 158.558 61.9424C158.331 61.7413 158.064 61.5912 157.775 61.502C155.472 60.7353 151.259 63.0353 149.24 64.1469L148.703 64.4383C146.669 65.5966 144.699 66.8634 142.801 68.2333L140.138 70.0426C118.118 85.0079 90.7108 103.638 86.7198 131.836C86.5356 133.116 86.3744 134.473 86.2056 135.876C85.1925 144.072 83.9798 154.23 77.8091 159.007Z" fill="#1B1B1E"/>
<path d="M141.533 15.8813L89.5889 28.6549C87.4939 29.1701 86.2136 31.2843 86.7294 33.377L114.075 144.336C114.591 146.429 116.707 147.707 118.802 147.192L170.746 134.419C172.841 133.903 174.121 131.789 173.605 129.697L146.26 18.7377C145.744 16.645 143.628 15.3662 141.533 15.8813Z" fill="white"/>
<path d="M117.85 147.698C117.068 147.696 116.301 147.481 115.632 147.077C115.148 146.788 114.727 146.405 114.393 145.951C114.06 145.497 113.821 144.98 113.69 144.432L86.3514 33.4726C86.0804 32.3696 86.2587 31.2042 86.8473 30.2324C87.4359 29.2606 88.3866 28.562 89.4905 28.29L141.435 15.5173C142.54 15.2464 143.708 15.4243 144.682 16.0121C145.656 16.5999 146.357 17.5497 146.631 18.653L173.969 129.613C174.238 130.718 174.058 131.884 173.468 132.857C172.879 133.829 171.927 134.529 170.822 134.803L118.878 147.568C118.542 147.653 118.196 147.697 117.85 147.698ZM142.471 16.1613C142.184 16.1604 141.898 16.1938 141.619 16.261L89.6747 29.0336C88.7681 29.2567 87.9873 29.8302 87.5038 30.628C87.0202 31.4259 86.8735 32.3828 87.0959 33.2886L114.434 144.248C114.658 145.154 115.232 145.934 116.03 146.417C116.829 146.9 117.787 147.046 118.694 146.824L170.638 134.059C171.546 133.834 172.327 133.26 172.812 132.461C173.297 131.662 173.445 130.704 173.225 129.797L145.886 18.837C145.699 18.0735 145.261 17.3948 144.642 16.9097C144.022 16.4246 143.258 16.161 142.471 16.1613Z" fill="#1B1B1E"/>
<path d="M144.833 26.4317L91.5551 39.5333L114.039 130.765L167.317 117.663L144.833 26.4317Z" fill="#00428A"/>
<path d="M146.843 127.407L136.707 129.899C135.419 130.216 134.632 131.516 134.949 132.803L135.903 136.674C136.22 137.961 137.522 138.747 138.81 138.431L148.945 135.938C150.234 135.621 151.021 134.321 150.704 133.035L149.75 129.163C149.432 127.877 148.131 127.09 146.843 127.407Z" fill="white"/>
<path d="M138.227 138.897C137.604 138.896 136.999 138.686 136.509 138.301C136.019 137.916 135.673 137.378 135.525 136.773L134.566 132.902C134.401 132.188 134.524 131.439 134.907 130.815C135.29 130.191 135.904 129.743 136.615 129.567L146.754 127.075C147.471 126.901 148.228 127.018 148.859 127.4C149.491 127.783 149.945 128.399 150.123 129.114L151.075 132.948C151.251 133.664 151.134 134.422 150.752 135.053C150.369 135.684 149.751 136.137 149.033 136.313L138.917 138.813C138.692 138.869 138.46 138.897 138.227 138.897ZM147.437 127.727C147.271 127.728 147.106 127.749 146.946 127.788L136.815 130.28C136.557 130.342 136.315 130.455 136.101 130.611C135.888 130.768 135.708 130.965 135.571 131.192C135.434 131.42 135.343 131.673 135.303 131.936C135.264 132.199 135.277 132.467 135.341 132.725L136.293 136.559C136.356 136.816 136.469 137.058 136.625 137.272C136.782 137.485 136.979 137.666 137.206 137.804C137.433 137.941 137.684 138.032 137.946 138.073C138.208 138.113 138.476 138.101 138.733 138.038L148.864 135.547C149.122 135.484 149.364 135.371 149.578 135.214C149.792 135.058 149.973 134.861 150.111 134.634C150.248 134.408 150.34 134.157 150.38 133.895C150.42 133.633 150.409 133.366 150.346 133.109L149.394 129.275C149.331 129.018 149.218 128.776 149.062 128.563C148.905 128.35 148.707 128.17 148.481 128.033C148.161 127.832 147.791 127.725 147.414 127.727H147.437Z" fill="#E6E7E8"/>
<path d="M107.036 30.1989C106.953 30.1931 106.874 30.1609 106.81 30.1071C106.747 30.0534 106.702 29.9808 106.682 29.8999C106.67 29.8506 106.667 29.7992 106.675 29.7489C106.682 29.6985 106.7 29.6501 106.726 29.6066C106.753 29.5631 106.788 29.5252 106.829 29.4953C106.87 29.4654 106.917 29.4439 106.966 29.4323L122.132 25.7063C122.181 25.6936 122.232 25.6907 122.282 25.6977C122.332 25.7047 122.38 25.7215 122.424 25.7472C122.467 25.7728 122.505 25.8068 122.536 25.8471C122.566 25.8875 122.588 25.9334 122.6 25.9823C122.624 26.0818 122.607 26.1865 122.554 26.274C122.501 26.3614 122.416 26.4245 122.316 26.4499L107.151 30.1759L107.036 30.1989Z" fill="#E6E7E8"/>
<path d="M124.335 25.944C124.25 25.9444 124.167 25.9158 124.1 25.8629C124.033 25.8099 123.986 25.7358 123.967 25.6527C123.943 25.5541 123.959 25.4503 124.01 25.3631C124.062 25.2759 124.145 25.212 124.243 25.185L126.284 24.6867C126.386 24.6623 126.494 24.6793 126.583 24.7339C126.672 24.7885 126.736 24.8763 126.76 24.978C126.785 25.0797 126.768 25.1869 126.713 25.276C126.658 25.3651 126.57 25.4289 126.469 25.4533L124.427 25.9593L124.335 25.944Z" fill="#E6E7E8"/>
<path d="M151.153 98.1113L119.584 105.874C116.79 106.562 115.082 109.382 115.77 112.174L116.328 114.437C117.016 117.228 119.839 118.934 122.634 118.247L154.202 110.484C156.997 109.797 158.705 106.976 158.017 104.185L157.459 101.922C156.771 99.13 153.948 97.424 151.153 98.1113Z" fill="white"/>
<path d="M121.372 118.833C120.123 118.83 118.911 118.409 117.929 117.638C116.947 116.867 116.252 115.79 115.954 114.578L115.401 112.278C115.049 110.84 115.281 109.321 116.048 108.053C116.815 106.786 118.053 105.873 119.492 105.516L151.067 97.7576C151.78 97.5823 152.52 97.549 153.245 97.6595C153.971 97.77 154.667 98.0222 155.295 98.4016C155.923 98.7811 156.47 99.2804 156.905 99.871C157.339 100.462 157.653 101.132 157.829 101.844L158.389 104.144C158.741 105.581 158.508 107.1 157.742 108.366C156.975 109.632 155.736 110.543 154.298 110.898L122.723 118.634C122.282 118.754 121.829 118.821 121.372 118.833ZM152.41 98.3939C152.019 98.3971 151.631 98.446 151.251 98.5396L119.676 106.26C119.061 106.411 118.481 106.681 117.97 107.056C117.459 107.431 117.027 107.903 116.699 108.445C116.371 108.987 116.154 109.589 116.059 110.215C115.964 110.841 115.993 111.48 116.146 112.094L116.698 114.394C117.007 115.634 117.795 116.702 118.89 117.363C119.984 118.024 121.297 118.224 122.539 117.921L154.114 110.155C155.355 109.848 156.423 109.063 157.085 107.97C157.747 106.878 157.948 105.568 157.645 104.328L157.084 102.028C156.824 100.984 156.223 100.057 155.377 99.3924C154.53 98.7275 153.487 98.3628 152.41 98.3556V98.3939Z" fill="#1B1B1E"/>
<path d="M149.896 71.4478L108.207 81.6997L110.051 89.1813L151.74 78.9295L149.896 71.4478Z" fill="white"/>
<path d="M113.935 85.836C114.652 85.836 115.232 85.2559 115.232 84.5403C115.232 83.8247 114.652 83.2446 113.935 83.2446C113.219 83.2446 112.638 83.8247 112.638 84.5403C112.638 85.2559 113.219 85.836 113.935 85.836Z" fill="#5ED8EA"/>
<path d="M118.694 84.6707C119.41 84.6707 119.991 84.0906 119.991 83.375C119.991 82.6594 119.41 82.0793 118.694 82.0793C117.978 82.0793 117.397 82.6594 117.397 83.375C117.397 84.0906 117.978 84.6707 118.694 84.6707Z" fill="#5ED8EA"/>
<path d="M123.445 83.4977C124.161 83.4977 124.742 82.9176 124.742 82.202C124.742 81.4865 124.161 80.9064 123.445 80.9064C122.728 80.9064 122.148 81.4865 122.148 82.202C122.148 82.9176 122.728 83.4977 123.445 83.4977Z" fill="#5ED8EA"/>
<path d="M128.203 82.3323C128.92 82.3323 129.5 81.7522 129.5 81.0366C129.5 80.3211 128.92 79.741 128.203 79.741C127.487 79.741 126.906 80.3211 126.906 81.0366C126.906 81.7522 127.487 82.3323 128.203 82.3323Z" fill="#5ED8EA"/>
<path d="M152.897 83.6486L111.208 93.9005L113.051 101.382L154.741 91.1303L152.897 83.6486Z" fill="white"/>
<path d="M116.936 98.0336C117.653 98.0336 118.233 97.4535 118.233 96.7379C118.233 96.0224 117.653 95.4423 116.936 95.4423C116.22 95.4423 115.639 96.0224 115.639 96.7379C115.639 97.4535 116.22 98.0336 116.936 98.0336Z" fill="#5ED8EA"/>
<path d="M121.695 96.8606C122.411 96.8606 122.992 96.2805 122.992 95.565C122.992 94.8494 122.411 94.2693 121.695 94.2693C120.978 94.2693 120.398 94.8494 120.398 95.565C120.398 96.2805 120.978 96.8606 121.695 96.8606Z" fill="#5ED8EA"/>
<path d="M126.453 95.6953C127.17 95.6953 127.75 95.1152 127.75 94.3997C127.75 93.6841 127.17 93.104 126.453 93.104C125.737 93.104 125.156 93.6841 125.156 94.3997C125.156 95.1152 125.737 95.6953 126.453 95.6953Z" fill="#5ED8EA"/>
<path d="M131.204 94.5299C131.92 94.5299 132.501 93.9498 132.501 93.2343C132.501 92.5187 131.92 91.9386 131.204 91.9386C130.488 91.9386 129.907 92.5187 129.907 93.2343C129.907 93.9498 130.488 94.5299 131.204 94.5299Z" fill="#5ED8EA"/>
<path d="M131.87 48.5412L113.328 53.1008L116.239 64.9151L134.781 60.3555L131.87 48.5412Z" fill="white"/>
<path d="M118.195 53.268C118.13 53.2667 118.066 53.2482 118.011 53.2143C117.932 53.165 117.875 53.0886 117.85 52.9997L116.944 49.3197C116.782 48.6672 116.751 47.9893 116.853 47.3249C116.954 46.6605 117.186 46.0225 117.534 45.4477C117.883 44.8729 118.342 44.3725 118.885 43.9752C119.427 43.578 120.043 43.2916 120.697 43.1327C122.015 42.8087 123.408 43.0208 124.569 43.7224C125.731 44.424 126.566 45.5576 126.891 46.874L127.796 50.554C127.817 50.6434 127.803 50.7375 127.755 50.8162C127.708 50.895 127.632 50.9522 127.543 50.9757L118.279 53.2757L118.195 53.268ZM121.925 43.7C121.568 43.6992 121.213 43.7403 120.866 43.8227C120.3 43.9617 119.767 44.211 119.298 44.5562C118.829 44.9014 118.432 45.3358 118.131 45.8344C117.83 46.3329 117.631 46.8859 117.544 47.4617C117.458 48.0374 117.486 48.6245 117.627 49.1893L118.448 52.532L127.037 50.416L126.215 47.081C125.984 46.118 125.435 45.2607 124.657 44.6474C123.879 44.034 122.916 43.7003 121.925 43.7Z" fill="white"/>
<path d="M123.598 56.7179C124.607 56.7179 125.425 55.901 125.425 54.8933C125.425 53.8855 124.607 53.0686 123.598 53.0686C122.589 53.0686 121.772 53.8855 121.772 54.8933C121.772 55.901 122.589 56.7179 123.598 56.7179Z" fill="#68E1FD"/>
<path d="M124.177 55.1053L123.185 55.349L124.204 59.4806L125.195 59.2369L124.177 55.1053Z" fill="#68E1FD"/>
<path d="M127.489 71.8903H127.397H127.259L127.006 71.8289C121.041 70.8419 115.55 67.9692 111.341 63.6333C109.349 61.5226 107.727 59.0914 106.544 56.4419C105.866 54.9691 105.352 53.4266 105.009 51.8419C104.958 51.6529 104.981 51.4515 105.074 51.279C105.167 51.1065 105.322 50.976 105.508 50.9143C105.823 50.7763 106.161 50.6076 106.567 50.3853C108.192 49.5787 109.446 48.1828 110.075 46.4829C110.521 45.2289 110.542 43.8634 110.136 42.5959C110.1 42.5041 110.084 42.4059 110.089 42.3074C110.093 42.209 110.119 42.1127 110.163 42.0245C110.207 41.9364 110.269 41.8585 110.345 41.7958C110.421 41.7332 110.509 41.6871 110.604 41.6606L112.822 40.6333C113.767 40.2193 114.718 39.7976 115.678 39.3989C117.665 38.5278 119.77 37.9518 121.925 37.6893C123.46 37.5283 124.995 37.4056 126.53 37.2906L128.94 37.1066C129.026 37.0901 129.114 37.091 129.2 37.1092C129.285 37.1274 129.366 37.1626 129.437 37.2126C129.509 37.2627 129.57 37.3266 129.616 37.4006C129.663 37.4746 129.694 37.5571 129.707 37.6433L129.792 37.9653C129.875 38.3426 129.99 38.712 130.137 39.0693C130.47 39.8335 130.953 40.5235 131.556 41.0988C132.16 41.6741 132.873 42.1232 133.652 42.4196C134.894 42.8838 136.224 43.062 137.544 42.9409C137.664 42.918 137.789 42.9198 137.909 42.9463C138.029 42.9729 138.142 43.0235 138.242 43.0953C138.342 43.167 138.426 43.2583 138.489 43.3636C138.553 43.4688 138.594 43.5859 138.611 43.7076C139.287 46.1827 139.546 48.7529 139.378 51.3129C138.979 58.2743 136.047 64.3463 130.667 69.4829C130.091 70.0196 129.485 70.5333 128.894 71.0163L128.073 71.7063C128.028 71.7446 127.976 71.7733 127.919 71.7906L127.551 71.8749L127.489 71.8903ZM110.904 42.3199C111.347 43.7425 111.317 45.2702 110.819 46.6746C110.133 48.5464 108.761 50.0887 106.982 50.9909C106.619 51.1996 106.245 51.389 105.861 51.5583C105.829 51.5696 105.798 51.585 105.769 51.6043C106.119 53.1472 106.621 54.652 107.266 56.0969C108.412 58.6694 109.987 61.0286 111.925 63.0736C116.021 67.2886 121.364 70.0782 127.167 71.0316C127.275 71.0316 127.374 71.0776 127.474 71.1006H127.512H127.697L128.464 70.4566C129.047 69.9736 129.654 69.4676 130.206 68.9233C135.441 63.9706 138.296 58.0289 138.649 51.2899C138.801 48.8136 138.542 46.3293 137.881 43.9376C137.871 43.8746 137.848 43.8145 137.812 43.7613C137.741 43.7464 137.668 43.7464 137.597 43.7613C136.162 43.8874 134.717 43.6909 133.368 43.1863C131.616 42.5049 130.205 41.1566 129.447 39.4373C129.284 39.0394 129.153 38.6292 129.055 38.2106L128.978 37.9269L126.568 38.1186C125.079 38.2336 123.498 38.3563 122.025 38.5173C119.942 38.7739 117.907 39.3317 115.985 40.1733C115.033 40.5719 114.089 40.9783 113.145 41.3923C112.403 41.7194 111.658 42.0414 110.911 42.3583L110.904 42.3199Z" fill="#F7F7F7" stroke="#F7F7F7"/>
<path d="M84.4787 144.547C84.4787 144.547 90.4729 94.4609 96.3443 88.9793C103.329 82.4703 109.691 78.0543 110.858 81.7726C112.024 85.4909 113.106 91.6933 103.559 98.6393L104.956 111.036C104.956 111.036 114.358 117.545 109.461 138" fill="white"/>
<path d="M84.4787 144.9H84.425C84.3325 144.888 84.2484 144.841 84.1909 144.768C84.1333 144.694 84.1072 144.601 84.118 144.509C84.3636 142.462 90.1966 94.2386 96.0987 88.734C102.853 82.4396 107.435 79.534 109.706 80.155C110.068 80.2544 110.395 80.4493 110.654 80.7192C110.914 80.989 111.095 81.3239 111.18 81.6883C113.828 90.1216 108.739 95.2966 103.927 98.8463L105.286 110.891C106.468 111.795 114.419 118.726 109.791 138.1C109.781 138.145 109.762 138.188 109.735 138.225C109.709 138.263 109.674 138.295 109.635 138.319C109.596 138.344 109.552 138.36 109.506 138.367C109.46 138.374 109.414 138.372 109.369 138.36C109.28 138.337 109.203 138.28 109.154 138.201C109.106 138.123 109.089 138.029 109.108 137.939C113.889 117.944 104.84 111.435 104.748 111.374C104.708 111.343 104.675 111.305 104.65 111.262C104.625 111.218 104.609 111.17 104.603 111.121L103.206 98.7236C103.199 98.6626 103.208 98.6008 103.232 98.5443C103.256 98.4878 103.295 98.4387 103.344 98.4017C112.239 91.9003 111.848 86.135 110.512 81.8953C110.458 81.6476 110.338 81.419 110.165 81.233C109.992 81.047 109.773 80.9104 109.53 80.8373C107.557 80.316 102.96 83.306 96.5822 89.2706C90.8643 94.599 84.8778 144.118 84.8164 144.616C84.8021 144.696 84.7605 144.767 84.6988 144.819C84.6372 144.871 84.5593 144.899 84.4787 144.9Z" fill="#231F20"/>
<path d="M54.6844 178.02L77.671 150.159L125.156 171.082L111.165 201.894L54.6844 178.02Z" fill="#1B1B1E"/>
<path d="M231.294 168.176C231.294 168.176 213.426 133.055 199.964 117.231C198.122 115.069 195.782 114.709 194.124 115.828C192.174 117.147 192.098 121.57 192.098 121.57C192.098 121.57 186.986 118.611 184.538 119.224C182.089 119.838 181.805 123.709 181.805 123.709C181.805 123.709 176.348 121.908 174.13 123.847C171.912 125.787 171.828 129.321 171.828 129.321C171.828 129.321 143.054 106.222 139.885 104.267C136.715 102.312 131.028 105.8 133.837 109.879C135.579 112.424 150.1 126.868 154.797 131.46C159.494 136.053 170.423 148.511 171.682 152.16C172.941 155.81 173.946 160.003 166.486 160.517C159.026 161.031 152.387 162.357 149.118 165.117C145.848 167.877 143.699 172.055 145.334 172.876C146.969 173.696 173.34 170.683 183.356 174.762C193.372 178.84 206.381 193.76 206.381 193.76L231.294 168.176Z" fill="white"/>
<path d="M206.373 194.174C206.319 194.172 206.267 194.16 206.218 194.137C206.169 194.115 206.125 194.083 206.089 194.043C205.959 193.89 192.996 179.147 183.187 175.153C176.325 172.354 161.505 172.929 152.648 173.274C147.851 173.458 145.741 173.527 145.142 173.274C144.926 173.166 144.742 173.004 144.607 172.804C144.473 172.604 144.393 172.372 144.374 172.132C144.167 170.384 146.17 167.133 148.834 164.887C151.819 162.372 157.737 160.801 166.432 160.203C169.08 160.019 170.822 159.344 171.598 158.186C172.603 156.653 171.997 154.483 171.291 152.352C170.109 148.825 159.425 136.566 154.528 131.782C149.632 126.998 135.28 112.7 133.545 110.109C132.962 109.373 132.67 108.449 132.724 107.512C132.778 106.575 133.174 105.69 133.837 105.026C135.264 103.538 138.058 102.726 140.107 103.952C143.054 105.754 167.338 125.227 171.498 128.57C171.665 126.672 172.507 124.897 173.869 123.564C175.888 121.816 180.117 122.797 181.544 123.211C181.706 122.099 182.312 119.378 184.507 118.849C186.702 118.32 190.401 120.183 191.806 120.934C191.913 119.623 192.328 116.625 193.97 115.514C195.904 114.203 198.452 114.793 200.317 116.986C213.657 132.656 231.516 167.647 231.701 168C231.735 168.072 231.747 168.153 231.735 168.233C231.723 168.312 231.686 168.386 231.631 168.444L206.711 194.059C206.666 194.101 206.613 194.134 206.555 194.154C206.496 194.173 206.434 194.18 206.373 194.174ZM164.521 172.209C171.667 172.209 179.104 172.661 183.463 174.44C192.765 178.227 204.401 191 206.388 193.223L230.826 168.107C229.206 164.956 212.367 132.396 199.665 117.507C198.076 115.636 195.935 115.1 194.339 116.173C192.88 117.17 192.504 120.428 192.481 121.609C192.48 121.674 192.462 121.739 192.428 121.795C192.395 121.852 192.347 121.898 192.289 121.931C192.231 121.964 192.165 121.982 192.098 121.982C192.03 121.982 191.964 121.964 191.906 121.931C191.852 121.931 186.902 119.056 184.63 119.631C182.481 120.167 182.197 123.74 182.189 123.771C182.185 123.828 182.168 123.884 182.139 123.935C182.11 123.985 182.07 124.028 182.022 124.06C181.974 124.093 181.919 124.114 181.861 124.122C181.804 124.13 181.746 124.126 181.69 124.108C181.637 124.108 176.41 122.406 174.353 124.177C172.296 125.948 172.181 129.329 172.181 129.367C172.178 129.438 172.156 129.507 172.117 129.567C172.077 129.626 172.023 129.674 171.958 129.705C171.894 129.735 171.823 129.748 171.752 129.739C171.682 129.731 171.615 129.703 171.559 129.659C171.268 129.429 142.793 106.551 139.685 104.642C137.966 103.592 135.587 104.32 134.374 105.593C133.831 106.129 133.508 106.847 133.467 107.609C133.425 108.37 133.67 109.119 134.151 109.71C135.855 112.202 150.269 126.577 155.066 131.238C159.463 135.539 170.707 148.204 172.02 152.114C172.787 154.414 173.44 156.829 172.235 158.616C171.306 160.003 169.426 160.778 166.478 160.977C157.951 161.56 152.188 163.078 149.332 165.477C146.669 167.724 144.981 170.744 145.134 172.048C145.135 172.162 145.167 172.273 145.227 172.37C145.286 172.468 145.371 172.547 145.472 172.6C145.909 172.807 149.164 172.676 152.61 172.546C156.056 172.416 160.193 172.209 164.521 172.209Z" fill="#1B1B1E"/>
<path d="M228.7 158.025L192.397 187.603L210.402 214.222L252.316 179.454L228.7 158.025Z" fill="#1B1B1E"/>
<path d="M222.721 33.8253H176.172V68.1337H222.721V33.8253Z" fill="white"/>
<path d="M222.721 68.517H176.172C176.07 68.517 175.973 68.4766 175.901 68.4047C175.829 68.3329 175.788 68.2354 175.788 68.1337V33.8253C175.788 33.7237 175.829 33.6262 175.901 33.5543C175.973 33.4824 176.07 33.442 176.172 33.442H222.721C222.823 33.442 222.92 33.4824 222.992 33.5543C223.064 33.6262 223.105 33.7237 223.105 33.8253V68.1337C223.105 68.2354 223.064 68.3329 222.992 68.4047C222.92 68.4766 222.823 68.517 222.721 68.517ZM176.556 67.7504H222.337V34.2087H176.525L176.556 67.7504Z" fill="#E6E7E8"/>
<path d="M215.399 44.7197C215.263 44.9347 215.112 45.1397 214.946 45.333L198.867 61.3717C198.785 61.5016 198.672 61.6086 198.538 61.6829C198.404 61.7571 198.253 61.7961 198.099 61.7961C197.946 61.7961 197.795 61.7571 197.661 61.6829C197.527 61.6086 197.413 61.5016 197.332 61.3717L188.306 52.0337C188.192 51.9482 188.1 51.8364 188.038 51.7078C187.977 51.5792 187.948 51.4375 187.953 51.2951C187.958 51.1526 187.998 51.0136 188.069 50.8898C188.14 50.7661 188.24 50.6614 188.36 50.5847L190.662 48.5453C190.743 48.4418 190.846 48.3581 190.963 48.3005C191.081 48.2429 191.21 48.2129 191.342 48.2129C191.473 48.2129 191.602 48.2429 191.72 48.3005C191.837 48.3581 191.94 48.4418 192.021 48.5453L197.393 53.9887C197.475 54.1185 197.588 54.2256 197.722 54.2999C197.856 54.3741 198.007 54.4131 198.161 54.4131C198.314 54.4131 198.465 54.3741 198.599 54.2999C198.734 54.2256 198.847 54.1185 198.928 53.9887L211.423 41.5687C211.505 41.4469 211.616 41.3472 211.746 41.2782C211.876 41.2093 212.021 41.1732 212.168 41.1732C212.315 41.1732 212.459 41.2093 212.589 41.2782C212.719 41.3472 212.83 41.4469 212.912 41.5687C213.618 42.2817 214.324 42.987 215.023 43.7C215.181 43.8896 215.328 44.0894 215.46 44.298L215.399 44.7197Z" fill="#5ED8EA"/>
<path d="M175.757 86.963C175.662 86.9599 175.57 86.9226 175.5 86.8579C175.43 86.7931 175.385 86.7053 175.374 86.6103C175.367 86.5102 175.399 86.4114 175.464 86.3344C175.528 86.2573 175.619 86.2079 175.719 86.1963C179.672 85.8283 182.772 84.2336 184.929 81.466C189.941 75.0413 188.352 64.2926 188.337 64.1853C188.329 64.1354 188.331 64.0846 188.344 64.0356C188.356 63.9867 188.377 63.9406 188.407 63.9C188.437 63.8594 188.475 63.8251 188.518 63.7991C188.561 63.773 188.609 63.7558 188.659 63.7483C188.76 63.7349 188.861 63.761 188.943 63.8211C189.025 63.8812 189.08 63.9705 189.097 64.0703C189.166 64.5226 190.754 75.2483 185.535 81.9336C183.233 84.8776 179.956 86.5336 175.788 86.963H175.757Z" fill="#E6E7E8"/>
<path d="M113.882 181.225C113.828 181.235 113.774 181.235 113.72 181.225L74.2479 162.825C74.1965 162.808 74.1493 162.78 74.1093 162.743C74.0694 162.707 74.0377 162.662 74.0162 162.613C73.9947 162.563 73.9841 162.509 73.9849 162.455C73.9857 162.401 73.9979 162.348 74.0208 162.299C74.0437 162.25 74.0768 162.206 74.1178 162.171C74.1588 162.135 74.2068 162.109 74.2587 162.093C74.3106 162.078 74.3652 162.074 74.4189 162.081C74.4726 162.088 74.5242 162.106 74.5703 162.135L114.043 180.535C114.089 180.556 114.13 180.586 114.165 180.624C114.199 180.661 114.225 180.705 114.242 180.753C114.26 180.801 114.267 180.851 114.264 180.902C114.262 180.953 114.249 181.003 114.227 181.048C114.191 181.106 114.14 181.153 114.079 181.184C114.018 181.215 113.95 181.229 113.882 181.225Z" fill="white"/>
<path d="M200.034 192.433C199.974 192.433 199.916 192.419 199.862 192.392C199.809 192.366 199.763 192.327 199.727 192.28C199.665 192.199 199.639 192.096 199.654 191.996C199.668 191.895 199.722 191.804 199.803 191.743L231.064 167.9C231.144 167.838 231.246 167.811 231.346 167.824C231.447 167.837 231.539 167.889 231.601 167.969C231.663 168.049 231.69 168.151 231.677 168.252C231.664 168.352 231.612 168.444 231.532 168.506L200.264 192.395C200.193 192.432 200.112 192.446 200.034 192.433Z" fill="white"/>
</svg>
