<svg width="39" height="39" viewBox="0 0 39 39" fill="none" xmlns="http://www.w3.org/2000/svg">
<path d="M13.0163 15.7134C13.2646 16.3129 13.5973 16.8724 14.0032 17.3754L11.1061 20.2725C10.8248 20.5538 10.6668 20.9354 10.6668 21.3332V23.4999H8.50006C7.67163 23.4999 7.00006 24.1715 7.00006 24.9999V27.1666H4.83335C4.43553 27.1666 4.054 27.3246 3.77269 27.6059L3.01369 28.3649C2.99807 28.3805 2.98281 28.3965 2.9679 28.4128L2.74973 28.6511C2.73494 28.6673 2.7205 28.6838 2.70643 28.7006C1.92738 29.6303 1.5003 30.8046 1.5 32.0176V32.018V34.1666C1.5 34.1965 1.50089 34.2264 1.50268 34.2562L1.51551 34.4707C1.51723 34.4994 1.51977 34.5281 1.52314 34.5567C1.61866 35.3675 2.00845 36.1151 2.61856 36.6576L3.61321 35.5391L2.61857 36.6576C3.22869 37.2001 4.0167 37.4999 4.83315 37.5H4.83335H6.98204C7.00489 37.5 7.02773 37.4995 7.05055 37.4984L7.37138 37.4838C7.39235 37.4828 7.4133 37.4814 7.43421 37.4796C8.64341 37.3733 9.77659 36.8447 10.635 35.9864L10.6351 35.9863L21.6246 24.9968C22.1276 25.4027 22.6871 25.7354 23.2866 25.9837C24.1086 26.3243 24.9896 26.4995 25.8793 26.4995C26.7691 26.4995 27.6501 26.3243 28.4721 25.9838C29.2941 25.6432 30.0409 25.1441 30.67 24.5149L35.5154 19.6696C35.5154 19.6695 35.5155 19.6695 35.5155 19.6695C36.1446 19.0404 36.6437 18.2936 36.9842 17.4716C37.3247 16.6496 37.5 15.7686 37.5 14.8789C37.5 13.9891 37.3247 13.1081 36.9842 12.2861C36.6437 11.4641 36.1446 10.7173 35.5155 10.0882C35.5155 10.0882 35.5154 10.0882 35.5154 10.0882L28.9118 3.48458C28.2828 2.8554 27.5359 2.3563 26.7139 2.01578C25.8919 1.67526 25.0109 1.5 24.1211 1.5C23.2314 1.5 22.3504 1.67526 21.5284 2.01578C20.7064 2.3563 19.9595 2.8554 19.3304 3.48458L14.4851 8.32997C14.485 8.33 14.485 8.33003 14.485 8.33006C13.8558 8.95913 13.3568 9.70597 13.0163 10.5279C12.6757 11.3499 12.5005 12.2309 12.5005 13.1207C12.5005 14.0104 12.6757 14.8914 13.0163 15.7134Z" stroke="#6E0271" stroke-width="3" stroke-linecap="round" stroke-linejoin="round"/>
<path d="M25.0002 13.9995H25.0186H25.0002Z" fill="#6E0271"/>
<path d="M25.0002 13.9995H25.0186" stroke="#6E0271" stroke-width="3" stroke-linecap="round" stroke-linejoin="round"/>
</svg>
