<svg width="87" height="77" viewBox="0 0 87 77" fill="none" xmlns="http://www.w3.org/2000/svg">
<path d="M77.0606 24.5789H56.5118C58.0783 21.7446 59.2288 18.8808 60.003 16.3954C60.8423 13.7015 61.2509 11.4156 61.2509 10.0789C61.2509 5.34361 57.6942 0.5 51.5764 0.5C48.6645 0.5 46.7774 1.33714 45.4339 2.82061C44.1248 4.26611 43.3793 6.28134 42.6247 8.49669C42.5477 8.72279 42.4704 8.95177 42.3921 9.1834C40.9254 13.5262 39.144 18.8004 33.3127 23.5001L27.7521 27.6792L27.7512 27.6799C27.286 28.0312 27.0823 28.5901 27.0823 29.1053C27.0823 29.7806 27.3758 30.2618 27.7709 30.5602C28.1443 30.8421 28.5874 30.9474 28.9151 30.9474C29.282 30.9474 29.6317 30.8355 29.9578 30.6385L29.9794 30.6254L29.9996 30.6102L35.567 26.426L35.5735 26.4212L35.5797 26.4162C42.2818 21.034 44.2604 15.3344 45.6327 11.0404C45.676 10.9048 45.7186 10.7711 45.7606 10.6392C46.391 8.6607 46.891 7.09142 47.6824 5.97699C48.0931 5.39865 48.5737 4.95856 49.1827 4.65896C49.7944 4.35799 50.5654 4.18421 51.5764 4.18421C55.3433 4.18421 57.5849 7.16143 57.5849 10.0789C57.5849 10.9881 57.2312 13.0018 56.4222 15.5632C55.6195 18.1045 54.3824 21.141 52.6457 24.0978L51.7198 25.4181C51.5015 25.7139 51.3903 26.0533 51.3903 26.421C51.3903 27.5024 52.2573 28.2632 53.2231 28.2632H77.0606C80.3139 28.2632 82.9121 30.8823 82.9121 34.0789C82.9121 37.0434 80.5405 39.5897 77.5113 39.8159C76.5165 39.8274 75.7765 40.7006 75.7765 41.5789C75.7765 42.0389 75.9654 42.4146 76.1787 42.7353C76.2851 42.8953 76.4066 43.0546 76.525 43.2088L76.5516 43.2434C76.6639 43.3896 76.7759 43.5354 76.8877 43.6934C77.3529 44.3509 77.8153 45.2192 77.8153 46.7105C77.8153 49.4664 75.7951 51.8662 73.1296 52.3763C72.4703 52.49 71.6208 53.1317 71.6208 54.2105C71.6208 54.5341 71.7238 54.8189 71.8373 55.068C71.8942 55.1929 71.9595 55.3205 72.0228 55.4441L72.023 55.4444L72.025 55.4483C72.0891 55.5737 72.1534 55.6993 72.2173 55.8349C72.4676 56.366 72.7185 57.0628 72.7185 58.1579C72.7185 60.6167 71.1426 62.7932 68.7632 63.5994C67.8822 63.8315 67.465 64.6165 67.465 65.3421C67.465 65.545 67.4986 65.7535 67.5295 65.9457C67.5363 65.9876 67.5429 66.0287 67.549 66.0688C67.5858 66.3097 67.6216 66.5989 67.6216 67C67.6216 70.2008 65.0194 72.8158 61.8486 72.8158H52.596C47.5301 72.8158 42.461 71.1148 38.3921 68.0229L38.3791 68.0131L38.3655 68.0041L29.8967 62.3988L29.8881 62.3931L29.8793 62.3878C29.5736 62.2032 29.248 62.0789 28.9151 62.0789C27.8326 62.0789 27.0823 62.9572 27.0823 63.921C27.0823 64.5058 27.2827 65.0924 27.8619 65.4479L36.2321 71.0397C40.9426 74.5728 46.6893 76.5 52.596 76.5H61.8486C67.0679 76.5 71.2876 72.2466 71.2876 67V66.9985V66.9969V66.9954V66.9938V66.9923V66.9908V66.9892V66.9877V66.9861V66.9846V66.983V66.9815V66.98V66.9784V66.9769V66.9753V66.9738V66.9723V66.9707V66.9692V66.9676V66.9661V66.9645V66.963V66.9615V66.9599V66.9584V66.9568V66.9553V66.9538V66.9522V66.9507V66.9491V66.9476V66.946V66.9445V66.943V66.9414V66.9399V66.9383V66.9368V66.9352V66.9337V66.9322V66.9306V66.9291V66.9275V66.926V66.9245V66.9229V66.9214V66.9198V66.9183V66.9167V66.9152V66.9137V66.9121V66.9106V66.909V66.9075V66.9059V66.9044V66.9029V66.9013V66.8998V66.8982V66.8967V66.8952V66.8936V66.8921V66.8905V66.889V66.8874V66.8859V66.8844V66.8828V66.8813V66.8797V66.8782V66.8766V66.8751V66.8736V66.872V66.8705V66.8689V66.8674V66.8659V66.8643V66.8628V66.8612V66.8597V66.8581V66.8566V66.8551V66.8535V66.852V66.8504V66.8489V66.8474V66.8458V66.8443V66.8427V66.8412V66.8396V66.8381V66.8366V66.835V66.8335V66.8319V66.8304V66.8288V66.8273V66.8258V66.8242V66.8227V66.8211V66.8196V66.8181V66.8165V66.815V66.8134V66.8119V66.8103V66.8088V66.8073V66.8057V66.8042V66.8026V66.8011V66.7996V66.798V66.7965V66.7949V66.7934V66.7918V66.7903V66.7888V66.7872V66.7857V66.7841V66.7826V66.7811V66.7795V66.778V66.7764V66.7749V66.7733V66.7718V66.7703V66.7687V66.7672V66.7656V66.7641V66.7626V66.761V66.7595V66.7579V66.7564V66.7548V66.7533V66.7518V66.7502V66.7487V66.7471V66.7456V66.744V66.7425V66.741V66.7394V66.7379V66.7363V66.7348V66.7333V66.7317V66.7302V66.7286V66.7271V66.7255V66.724V66.7225V66.7209V66.7194V66.7178V66.7163V66.7147V66.7132V66.7117V66.7101V66.7086V66.707V66.7055V66.704V66.7024V66.7009V66.6993V66.6978V66.6962V66.6947V66.6932V66.6916V66.6901V66.6885V66.687V66.6854V66.6839V66.6824V66.6808V66.6793V66.6777V66.6762V66.6747V66.6731V66.6716V66.67V66.6685V66.6669V66.6654V66.6639V66.6623V66.6608V66.6592V66.6577V66.6562V66.6546V66.6531V66.6515V66.65V66.6484V66.6469V66.6454V66.6438V66.6423V66.6407V66.6392V66.6376V66.6361V66.6346V66.633V66.6315V66.6299V66.6284V66.6269V66.6253V66.6238V66.6222V66.6207V66.6191V66.6176V66.6161V66.6145V66.613V66.6114V66.6099V66.6084V66.6068V66.6053V66.6037V66.6022V66.6006V66.5991V66.5976V66.596V66.5945V66.5929V66.5914V66.5899V66.5883V66.5868V66.5852V66.5837V66.5821V66.5806V66.5791V66.5775V66.576V66.5744V66.5729V66.5714V66.5698V66.5683V66.5667V66.5652V66.5636V66.5621V66.5606V66.559V66.5575V66.5559V66.5544V66.5528V66.5513V66.5498V66.5482V66.5467V66.5451V66.5436V66.5421V66.5405V66.539V66.5374V66.5359V66.5343V66.5328V66.5313V66.5297V66.5282V66.5266V66.5251V66.5235V66.522V66.5205V66.5189V66.5174V66.5166C74.3524 64.8895 76.3844 61.7247 76.3844 58.1579C76.3844 57.2209 76.202 56.2366 75.946 55.3578C79.1988 53.839 81.4813 50.4705 81.4813 46.7105C81.4813 45.3941 81.1653 44.0196 80.5879 42.8022C84.1016 41.4 86.5 37.9666 86.5 34.0789C86.5 28.8323 82.28 24.5789 77.0606 24.5789ZM22.75 70.5526V33.1316C22.75 29.8539 20.0939 27.2632 16.9181 27.2632H6.25382C3.06842 27.2632 0.5 29.8635 0.5 33.1316V70.5526C0.5 73.8207 3.06842 76.4211 6.25382 76.4211H16.9181C20.0939 76.4211 22.75 73.8303 22.75 70.5526ZM16.9181 30.9474C18.1286 30.9474 19.084 31.9045 19.084 33.1316V70.5526C19.084 71.7797 18.1286 72.7368 16.9181 72.7368H6.25382C5.11221 72.7368 4.08786 71.7702 4.08786 70.5526V33.1316C4.08786 31.914 5.11221 30.9474 6.25382 30.9474H16.9181Z" fill="#1F9E14" stroke="#1F9E14"/>
</svg>
