<svg width="27" height="25" viewBox="0 0 27 25" fill="none" xmlns="http://www.w3.org/2000/svg">
<path d="M23.9228 12.9152L13.5116 23.2265L3.1003 12.9152C2.41358 12.247 1.87266 11.4438 1.5116 10.5562C1.15055 9.66865 0.977176 8.71594 1.00241 7.75808C1.02764 6.80022 1.25092 5.85796 1.65821 4.99063C2.06549 4.12331 2.64794 3.3497 3.36889 2.71854C4.08983 2.08737 4.93366 1.61232 5.84722 1.32329C6.76078 1.03426 7.7243 0.93752 8.67708 1.03916C9.62987 1.1408 10.5513 1.43861 11.3833 1.91385C12.2154 2.38909 12.94 3.03146 13.5116 3.8005C14.0856 3.03704 14.8111 2.40029 15.6425 1.93009C16.474 1.45989 17.3936 1.16638 18.3437 1.06792C19.2938 0.969457 20.254 1.06817 21.1642 1.35787C22.0744 1.64757 22.9151 2.12203 23.6335 2.75155C24.3519 3.38107 24.9326 4.15211 25.3394 5.01639C25.7461 5.88068 25.97 6.81961 25.9972 7.77443C26.0244 8.72925 25.8541 9.67939 25.4972 10.5654C25.1403 11.4514 24.6043 12.2542 23.9228 12.9236" stroke="#00428A" stroke-width="2" stroke-linecap="round" stroke-linejoin="round"/>
</svg>
