<svg width="39" height="40" viewBox="0 0 39 40" fill="none" xmlns="http://www.w3.org/2000/svg">
<path d="M20.4939 1.87657C19.9264 1.37448 19.0736 1.37448 18.5061 1.87657C14.5096 5.41239 9.29347 7.25336 3.96293 7.00944C3.27267 6.97785 2.65014 7.42189 2.45526 8.08482C1.56578 11.1106 1.29362 14.2843 1.65494 17.4174C2.01627 20.5504 3.0037 23.5789 4.55857 26.3228C6.11344 29.0667 8.20402 31.47 10.7061 33.39C13.2081 35.3099 16.0706 36.7073 19.1234 37.4992C19.3704 37.5632 19.6296 37.5632 19.8766 37.4992C22.9294 36.7073 25.7919 35.3099 28.2939 33.39C30.796 31.47 32.8866 29.0667 34.4414 26.3228C35.9963 23.5789 36.9837 20.5504 37.3451 17.4174C37.7064 14.2843 37.4342 11.1106 36.5447 8.08482C36.3499 7.42189 35.7273 6.97785 35.0371 7.00944C29.7065 7.25336 24.4904 5.41239 20.4939 1.87657Z" stroke="#6E0271" stroke-width="3" stroke-linecap="round" stroke-linejoin="round"/>
</svg>
