<svg width="22" height="22" viewBox="0 0 22 22" fill="none" xmlns="http://www.w3.org/2000/svg">
<path d="M20.5303 1.46967C20.2374 1.17678 19.7626 1.17678 19.4697 1.46967L1.46967 19.4697C1.17678 19.7626 1.17678 20.2374 1.46967 20.5303C1.76256 20.8232 2.23744 20.8232 2.53033 20.5303L20.5303 2.53033C20.8232 2.23744 20.8232 1.76256 20.5303 1.46967Z" stroke="#00428A" stroke-width="1.5" stroke-linecap="round" stroke-linejoin="round"/>
<path d="M2.53033 1.46967C2.23744 1.17678 1.76256 1.17678 1.46967 1.46967C1.17678 1.76256 1.17678 2.23744 1.46967 2.53033L19.4697 20.5303C19.7626 20.8232 20.2374 20.8232 20.5303 20.5303C20.8232 20.2374 20.8232 19.7626 20.5303 19.4697L2.53033 1.46967Z" stroke="#00428A" stroke-width="1.5" stroke-linecap="round" stroke-linejoin="round"/>
</svg>
