<svg width="37" height="30" viewBox="0 0 37 30" fill="none" xmlns="http://www.w3.org/2000/svg">
<path d="M2 28.2106C4.50832 26.7624 7.35365 26 10.25 26C13.1464 26 15.9917 26.7624 18.5 28.2106C21.0083 26.7624 23.8536 26 26.75 26C29.6464 26 32.4917 26.7624 35 28.2106" stroke="#6E0271" stroke-width="3" stroke-linecap="round" stroke-linejoin="round"/>
<path d="M2 4.21058C4.50832 2.7624 7.35365 2 10.25 2C13.1464 2 15.9917 2.7624 18.5 4.21058C21.0083 2.7624 23.8536 2 26.75 2C29.6464 2 32.4917 2.7624 35 4.21058" stroke="#6E0271" stroke-width="3" stroke-linecap="round" stroke-linejoin="round"/>
<path d="M2 4.21069V28.044" stroke="#6E0271" stroke-width="3" stroke-linecap="round" stroke-linejoin="round"/>
<path d="M18.5 4.21069V28.044" stroke="#6E0271" stroke-width="3" stroke-linecap="round" stroke-linejoin="round"/>
<path d="M35 4.21069V28.044" stroke="#6E0271" stroke-width="3" stroke-linecap="round" stroke-linejoin="round"/>
</svg>
