<svg width="37" height="26" viewBox="0 0 37 26" fill="none" xmlns="http://www.w3.org/2000/svg">
<path d="M14.8333 12.9999C14.8333 13.9724 15.2196 14.905 15.9072 15.5926C16.5948 16.2803 17.5275 16.6666 18.4999 16.6666C19.4724 16.6666 20.405 16.2803 21.0926 15.5926C21.7803 14.905 22.1666 13.9724 22.1666 12.9999C22.1666 12.0275 21.7803 11.0948 21.0926 10.4072C20.405 9.71956 19.4724 9.33325 18.4999 9.33325C17.5275 9.33325 16.5948 9.71956 15.9072 10.4072C15.2196 11.0948 14.8333 12.0275 14.8333 12.9999Z" stroke="#6E0271" stroke-width="3" stroke-linecap="round" stroke-linejoin="round"/>
<path d="M35 13C30.6 20.3333 25.1 24 18.5 24C11.9 24 6.4 20.3333 2 13C6.4 5.66667 11.9 2 18.5 2C25.1 2 30.6 5.66667 35 13Z" stroke="#6E0271" stroke-width="3" stroke-linecap="round" stroke-linejoin="round"/>
</svg>
