<svg width="15" height="18" viewBox="0 0 15 18" fill="none" xmlns="http://www.w3.org/2000/svg">
<path d="M3.97055e-08 1.00025V16.9998C-5.00925e-05 17.1777 0.0473734 17.3524 0.137377 17.5059C0.227381 17.6594 0.356706 17.7861 0.512009 17.8729C0.667312 17.9597 0.842968 18.0035 1.02085 17.9998C1.19874 17.9961 1.37241 17.945 1.52395 17.8517L14.5236 9.85198C14.6692 9.76252 14.7894 9.63723 14.8728 9.48808C14.9562 9.33893 15 9.17089 15 9.00001C15 8.82912 14.9562 8.66108 14.8728 8.51194C14.7894 8.36279 14.6692 8.2375 14.5236 8.14803L1.52395 0.148277C1.37241 0.0550448 1.19874 0.003934 1.02085 0.000218149C0.842968 -0.0034977 0.667312 0.040316 0.512009 0.127139C0.356706 0.213962 0.227381 0.340649 0.137377 0.49413C0.0473734 0.647611 -5.00925e-05 0.822327 3.97055e-08 1.00025Z" fill="#00428A"/>
</svg>
