<svg width="22" height="19" viewBox="0 0 22 19" fill="none" xmlns="http://www.w3.org/2000/svg">
<path d="M2 8.96436C1.58579 8.96436 1.25 9.30014 1.25 9.71436C1.25 10.1286 1.58579 10.4644 2 10.4644H20C20.4142 10.4644 20.75 10.1286 20.75 9.71436C20.75 9.30014 20.4142 8.96436 20 8.96436H2Z" stroke="#00428A" stroke-width="1.5" stroke-linecap="round" stroke-linejoin="round"/>
<path d="M2.53033 9.18403C2.23744 8.89113 1.76256 8.89113 1.46967 9.18403C1.17678 9.47692 1.17678 9.95179 1.46967 10.2447L9.18396 17.959C9.47685 18.2519 9.95172 18.2519 10.2446 17.959C10.5375 17.6661 10.5375 17.1912 10.2446 16.8983L2.53033 9.18403Z" stroke="#00428A" stroke-width="1.5" stroke-linecap="round" stroke-linejoin="round"/>
<path d="M1.46967 9.18396C1.17678 9.47685 1.17678 9.95172 1.46967 10.2446C1.76256 10.5375 2.23744 10.5375 2.53033 10.2446L10.2446 2.53033C10.5375 2.23744 10.5375 1.76256 10.2446 1.46967C9.95172 1.17678 9.47685 1.17678 9.18396 1.46967L1.46967 9.18396Z" stroke="#00428A" stroke-width="1.5" stroke-linecap="round" stroke-linejoin="round"/>
</svg>
