<svg width="151" height="151" viewBox="0 0 151 151" fill="none" xmlns="http://www.w3.org/2000/svg">
<path d="M3 75.5C3 85.0208 4.87527 94.4484 8.51873 103.245C12.1622 112.041 17.5025 120.033 24.2348 126.765C30.967 133.497 38.9593 138.838 47.7554 142.481C56.5516 146.125 65.9792 148 75.5 148C85.0208 148 94.4484 146.125 103.245 142.481C112.041 138.838 120.033 133.497 126.765 126.765C133.497 120.033 138.838 112.041 142.481 103.245C146.125 94.4484 148 85.0208 148 75.5C148 65.9792 146.125 56.5516 142.481 47.7554C138.838 38.9593 133.497 30.967 126.765 24.2348C120.033 17.5025 112.041 12.1622 103.245 8.51873C94.4484 4.87527 85.0208 3 75.5 3C65.9792 3 56.5516 4.87527 47.7554 8.51873C38.9593 12.1622 30.967 17.5025 24.2348 24.2348C17.5025 30.967 12.1622 38.9593 8.51873 47.7554C4.87527 56.5516 3 65.9792 3 75.5Z" stroke="#1F9E14" stroke-width="5" stroke-linecap="round" stroke-linejoin="round"/>
<path d="M43 75.889L65.2222 98.1112L109.667 53.6667" stroke="#1F9E14" stroke-width="5" stroke-linecap="round" stroke-linejoin="round"/>
</svg>
